<svg xmlns="http://www.w3.org/2000/svg" viewBox="0 0 170.39 180.65"><defs><style>.cls-1{fill:#41609b;}</style></defs><title>cross1</title><g id="Layer_2" data-name="Layer 2"><g id="Artwork"><path class="cls-1" d="M0,12.29A6.82,6.82,0,0,0,1.64,15,5.75,5.75,0,0,0,0,12.29Z"/><path class="cls-1" d="M1.65,15h0l0,0Z"/><path class="cls-1" d="M168.16,162.76l-.67-.85A6.76,6.76,0,0,0,168.16,162.76Z"/><path class="cls-1" d="M39.38,55.66l.69-.44C42,57.11,40,56.42,41.9,58c1.49-.11,2.86,3,3.9,3.18-.08,0,.77.93.46,1.13.7-.17,1,.78,1.65,1.21.32.08,0-.27,0-.55l1.4,1.09c.35.63.22,1-.36.52C52.06,68,67.25,84,70.9,87.29c-.12-.78-1.41-1.64-1.3-2.56,1.21.64,1.25,1.46,2,1.57-.41,1.12,1.82,2.22,1.73,3.7l.7-.16.19.73c4.46,3.64,1.15.71,4.58,4.44,2.11,2,3.69,2.45,4.6,3.84-.16-.18-.34-.9.3-.47-.29.46,1.68,1.19,1.54,1.84.56.49,2.17,2.28,2.14,1.18,0,.55,1.39,2.21.28,1.5A6.73,6.73,0,0,0,89,104.28l-.49-.81c1.77,1.69,2.26,3.06,3.83,3.77l-.4-.86c1,1,1.91,1.89,1.77,2.81l-1.19-.94a30.48,30.48,0,0,0,4.35,4l-.47-.54a77.38,77.38,0,0,1,7,6.13c2.92,2.72,5.82,5.45,6.94,6l-.29-1.2,1.7,1.23c-.15-.19-2,.47-2,.19,1.46,1.63,6,6.66,10.37,11.79s8.61,10.33,9.73,12c.78,1.47-.52.79-.6.83,1.41,1.41,1,.29,2,1.64.21.42-.41.2-.63.05.51.54.79,1.19,1,1.07-.42-.85.38-1,.49-1.57l1.31,1.74-.41.2c.29.39,1.71.21,2.85,2,2.29,3.2,5.15,6.19,7.52,9-.24.13-.87-.33-1.51-.81a5.49,5.49,0,0,1,1,1.36c-.24-1,1.26.94.95.29,2.6,1.27,4.09,4.43,6.07,5.66.43-.24,4.41-2,8.49-3.65s8.28-3.11,8.75-3.46a10.15,10.15,0,0,1,1,1.64,4.92,4.92,0,0,0-1.44-2.34l-.58.26c-1.38-1.43,0-.6-1.21-2.07.33-.4,1.52.9,2.52,2.14-.82-1.18-1.4-2.5-2.19-2.59-.66-1.15.58-.28-.25-1.63-.83-.77-2.14-1.54-2.72-2.66l.08,0c-1.57-2.6-3.57-2.87-4.9-5.13l.31.09c-.39-.88-1.85-1.92-2.66-3.31.22.4.2.94-.47.27-.93-1.56-1.95-2.26-2.44-3.47l-1.13-.61-2-2.54-3-3.67c-2.25-2.71-4.92-5.87-7.62-9-5.4-6.28-11-12.44-13.2-14.95l.23.15c-3.45-3.79-8.68-9.61-14.11-15.32s-11-11.28-14.88-14.81A29.25,29.25,0,0,0,93,78.31c.51.82,0,.83-.46.29-3.58-3.72-.49,0-4.3-3.59-4.52-4-20.41-20.56-23.88-24.57-2.53-1.5-4.67-4.39-7-6l.32.08C55.4,42.57,43.89,30.16,41.29,27.87l.25.4c-2.44-1.83-1.59-2.1-3.09-4-.36.79-2.51-.73-3.24-1.39l.15-.1c-1.14-1-4-2.88-5.79-4.57L30,18c-1.76-1.14-4.29-4.05-5.35-5.08-2.18-2.57-5.21-6.83-8.68-9.73l-1-3L14.5,0a48.31,48.31,0,0,0-7,4.27C4.1,6.81.9,10.17,1.77,13.5l-.39.23.86.84c.82,1.2,1.65,1.34,1.26,1.57l-1.3-1.48c.89,1.15,0,.57-.53.33a8.7,8.7,0,0,1,1,1.38c.32.09,0-.28-.09-.51a7.1,7.1,0,0,1,2.18,1.8c1,1.11-.46.56.69,1.85,6,6.86,11.75,13.53,18.25,20,0,.28-.15.1-.4,0,2.08,1.82,3.75,3.62,5.66,5.26a2.16,2.16,0,0,1,.31,1.23c0-.28,2.5,2.1,5,4.57L37.75,54C38.71,54.93,39.36,55.6,39.38,55.66Z"/><path class="cls-1" d="M167.33,22.67a9.17,9.17,0,0,0-4.11.4A12.86,12.86,0,0,0,167.33,22.67Z"/><path class="cls-1" d="M163.19,23.06h0Z"/><path class="cls-1" d="M17.25,180.16l.34-.85A4.59,4.59,0,0,0,17.25,180.16Z"/><path class="cls-1" d="M111.43,47.67l.25.78c-2.37,1.41-1.16-.38-3.25,1.1-.28,1.47-3.7,2.09-4.14,3.07,0-.09-1.12.54-1.23.2,0,.72-1,.8-1.61,1.36-.15.3.28,0,.55.09l-1.42,1.15c-.7.21-1,0-.43-.47-2.07,1.16-8,4.7-13.75,8.59l-4.26,2.92-3.79,2.7c-2.33,1.7-4.21,3.12-5.18,3.94.8,0,1.86-1.2,2.77-1-.83,1.12-1.66,1-1.88,1.75-1.06-.56-2.5,1.57-4,1.3l.07.72-.76.1c-4.28,4.14-.88,1.06-5.11,4.19-2.33,2-2.92,3.54-4.43,4.39.2-.16,1-.29.45.33-.45-.33-1.38,1.64-2,1.46-.56.53-2.51,2.13-1.39,2.14-.56,0-2.37,1.34-1.56.23a7.37,7.37,0,0,0-1.53,1.35l.87-.48c-1.88,1.73-3.28,2.28-4.1,3.88l.9-.41c-1.12,1.05-2,2-3,1.84.34-.41.67-.84,1-1.24a30.51,30.51,0,0,0-4.26,4.59l.57-.51c-.73,1.21-3.56,4.38-6.21,7.69s-5.16,6.71-5.61,8l1.18-.51-1,1.95c.17-.19-.72-2-.44-2a162.1,162.1,0,0,0-10.06,13.39c-4.06,6-7.49,12-8.73,13.74-1.11,1.33-.93-.18-1-.24-.84,1.91.08,1.08-.83,2.59-.32.37-.34-.3-.28-.58-.32.71-.83,1.24-.63,1.42.65-.75,1.06,0,1.66-.18l-1.14,1.95-.34-.3c-.26.44.46,1.7-.79,3.54C9.69,151.35,8,155,6.31,158.34c-.21-.17,0-.94.19-1.72a5.58,5.58,0,0,1-.87,1.49c.82-.61-.4,1.55.09,1-.19,2.92-2.57,5.69-2.89,8.18.4.3,3.69,3.19,7,6s6.74,5.63,7.27,5.87a7.55,7.55,0,0,1-.79,1.46c.32-.06,1-1.3,1.17-2l-.52-.37c.5-1.67.5-.22,1.15-1.77.5.13,0,1.58-.54,2.85.55-1.1,1.38-2.06,1.08-2.74.66-1,.51.37,1.28-.8.27-1,.35-2.34,1.1-3.24l.07.06c1.63-2.26,1.07-4.13,2.62-6.15l0,.32c.64-.67,1-2.39,2-3.67-.29.36-.8.55-.43-.33,1.1-1.48,1.37-2.73,2.34-3.72l.15-1.36c1.5-2.78,5.06-9.69,9.07-16.26,1-1.67,2-3.22,3-4.73s2-2.92,2.92-4.25,1.85-2.46,2.59-3.48,1.41-1.83,1.92-2.42l-.1.23a152.68,152.68,0,0,1,13-14.18c5.25-5.14,10.88-10.09,14.59-13.53,1.53-.59,3.13-2,4.51-2.93-.85.4-.81-.07-.24-.49,4-3,0-.48,3.94-3.73,1.1-1,3-2.53,5.47-4.32s5.32-3.9,8.14-5.81c5.68-3.9,11.56-7.4,13.84-8.61,1.95-2.1,5.18-3.45,7.27-5.24l-.15.29c1.18-.87,5.4-3.29,9.76-5.62S136.21,58,137.65,57l-.45.13c2.42-1.79,2.43-.9,4.62-1.78-.65-.58,1.4-2.16,2.24-2.66l0,.17c1.24-.8,3.89-2.94,6-4.13l.11.44c1.6-1.34,5.12-2.85,6.41-3.53l2.7-1.09,3-1.18A58.63,58.63,0,0,0,167.78,41a14.58,14.58,0,0,1,2.37.62l.24-.18L170.32,39c0-1.5-.07-3.53-.18-5.66A19.34,19.34,0,0,0,169,27.19a5.31,5.31,0,0,0-4.26-3.43V23.3c-.51.15-1,.31-1.47.48-1.81.34-2.36,1.12-2.41.66.75-.26,1.53-.51,2.34-.74-1.77.44-.66-.18,0-.63a19,19,0,0,1-2.09.45c-.27.28.3.08.61.09a13,13,0,0,1-3,1.55c-1.59.63-.4-.62-2.22.13-2.38,1-4.52,2-6.48,2.83l-6.09,2.7c-4.1,1.86-8.17,3.83-12.25,6-.27-.06,0-.18.15-.37-2.38,1.47-4.6,2.57-6.74,4a2.2,2.2,0,0,1-1.29,0c.27.06-2.76,1.83-5.88,3.64l-4.34,2.5C112.32,47.2,111.49,47.66,111.43,47.67Z"/></g></g></svg>